<?xml version="1.0" encoding="UTF-8" standalone="no"?>
<!-- Created with Inkscape (http://www.inkscape.org/) -->

<svg
   width="512"
   height="512"
   viewBox="0 0 512 512"
   version="1.1"
   id="svg1"
   xml:space="preserve"
   xmlns="http://www.w3.org/2000/svg"
   xmlns:svg="http://www.w3.org/2000/svg"><defs
     id="defs1" /><g
     id="layer1"
     transform="translate(-3.1381857,-10.072787)"
     style="stroke:none;stroke-opacity:1;fill:#ffffff;fill-opacity:1"><g
       id="g1"
       style="stroke:none;stroke-opacity:1;fill:#ffffff;fill-opacity:1"><path
         d="m 143.03969,360.89849 7.59843,17.01069 a 19.608864,19.608864 0 0 0 10.88292,10.29466 l 13.43207,4.90221 -4.06884,11.17705 a 21.814861,21.814861 0 0 0 12.5987,28.18775 l 10.93194,4.16688 -4.90222,13.38305 a 19.608864,19.608864 0 0 0 0.39218,15.00078 l 6.47092,14.70665 a 18.432332,18.432332 0 0 0 10.24563,9.80443 l 41.61982,15.9322 a 16.471445,16.471445 0 0 0 20.68735,-9.80443 l 15.98122,-41.61982 a 18.579398,18.579398 0 0 0 -0.39218,-14.11838 L 231.76979,321.28859 a 111.57443,111.57443 0 0 0 8.08866,-11.12803 12.255566,12.255566 0 1 0 -20.7854,-12.99087 84.563224,84.563224 0 0 1 -10.58878,13.62816 12.25554,12.25554 0 0 0 -2.35307,13.48109 l 55.10091,123.14366 -12.20652,31.76636 -31.76636,-12.15749 -4.60808,-10.29466 7.79452,-20.34419 a 15.049803,15.049803 0 0 0 -8.67692,-19.60887 l -17.2558,-6.61799 6.66701,-16.66753 a 15.049803,15.049803 0 0 0 -8.67692,-19.60886 l -20.34419,-7.84355 -9.80443,-22.3541 A 12.108473,12.108473 0 0 0 150.73617,336.43644 84.220069,84.220069 0 0 1 72.839958,213.93006 12.310151,12.310151 0 1 0 50.878031,202.80203 108.73115,108.73115 0 0 0 143.03969,360.89849 Z"
         id="path1"
         style="stroke-width:4.90222;stroke:none;stroke-opacity:1;fill:#ffffff;fill-opacity:1" /><path
         d="m 144.55938,252.16734 a 123.38877,123.38877 0 0 0 130.546,2.79427 l 18.87353,12.35358 a 20.44224,20.44224 0 0 0 15.0498,3.03938 h 0.49023 l 17.94211,-3.72569 3.13741,15.00078 a 23.236503,23.236503 0 0 0 27.50144,17.99113 l 15.00078,-3.13741 3.67666,17.79504 a 20.736373,20.736373 0 0 0 8.87301,13.08892 v 0 l 15.24589,9.80443 a 19.314731,19.314731 0 0 0 10.58879,3.18644 19.608864,19.608864 0 0 0 3.97079,-0.39218 l 50.24771,-10.19661 a 17.108733,17.108733 0 0 0 13.23599,-20.24615 L 468.4978,259.27556 a 19.314731,19.314731 0 0 0 -8.38279,-12.25554 L 334.32415,164.56475 A 123.24171,123.24171 0 1 0 144.55938,252.16734 Z M 129.46055,95.002297 a 98.681606,98.681606 0 0 1 179.47012,72.994003 12.25554,12.25554 0 0 0 5.29439,12.59869 l 130.7421,85.78878 8.52986,40.83546 -40.83546,8.52985 -12.1575,-7.94158 -5.24537,-25.24642 a 15.44198,15.44198 0 0 0 -18.48135,-12.01043 l -22.59922,4.90222 -4.90221,-22.59922 a 15.44198,15.44198 0 0 0 -18.28527,-11.9614 l -24.95228,5.04928 -24.16792,-15.83416 a 12.25554,12.25554 0 0 0 -13.67718,0 A 98.730628,98.730628 0 0 1 129.46055,94.855237 Z"
         id="path2"
         style="stroke-width:4.90222;stroke:none;stroke-opacity:1;fill:#ffffff;fill-opacity:1" /><path
         d="m 164.65846,163.63333 a 37.894129,37.894129 0 0 0 20.93246,6.27483 38.629461,38.629461 0 0 0 7.84354,-0.83337 38.13924,38.13924 0 1 0 -28.67796,-5.44146 z m 9.5103,-39.21773 a 13.530116,13.530116 0 0 1 8.6279,-5.88266 13.824249,13.824249 0 0 1 2.79426,-0.29413 13.62816,13.62816 0 0 1 11.37314,21.12855 v 0 a 13.62816,13.62816 0 0 1 -22.7953,-14.70665 z"
         id="path3"
         style="stroke-width:4.90222;stroke:none;stroke-opacity:1;fill:#ffffff;fill-opacity:1" /></g></g></svg>
